<svg width="21" height="20" viewBox="0 0 21 20" fill="none" xmlns="http://www.w3.org/2000/svg">
<path d="M8.41527 1.8541C9.01397 0.0114827 11.6208 0.0114808 12.2195 1.8541L13.2361 4.98278C13.5038 5.80682 14.2717 6.36475 15.1382 6.36475H18.4279C20.3653 6.36475 21.1709 8.84398 19.6034 9.98278L16.942 11.9164C16.241 12.4257 15.9477 13.3284 16.2155 14.1525L17.232 17.2812C17.8308 19.1238 15.7218 20.656 14.1544 19.5172L11.493 17.5836C10.792 17.0743 9.84279 17.0743 9.14181 17.5836L6.4804 19.5172C4.91297 20.656 2.80401 19.1238 3.40272 17.2812L4.41929 14.1525C4.68703 13.3284 4.39372 12.4257 3.69274 11.9164L1.03133 9.98278C-0.536094 8.84398 0.269456 6.36475 2.2069 6.36475H5.49659C6.36304 6.36475 7.13095 5.80682 7.3987 4.98278L8.41527 1.8541Z" fill="#FFA928"/>
</svg>
